# xmcd
#
# Track frame offsets:
#	182
#	13462
#	24972
#	36957
#	59125
#	70277
#	84862
#	99525
#	120755
#	134435
#	146905
#	158775
#	173587
#	186095
#	207602
#	220697
#	232725
#	242685
#	264777
#	277200
#
# Disc length: 3922 seconds
#
# Revision: 0
# Processed by: cddbd v1.5.2PL0 Copyright (c) Steve Scherf et al.
# Submitted via: dBpowerAMP V4.0
#
DISCID=1d0f5014
DTITLE=John Walker - Sinatra Tribute
DYEAR=1900
DGENRE=Instrumental
TTITLE0=New York, New York
TTITLE1=Something Stupid
TTITLE2=Strangers In The Night
TTITLE3=Medley:- It's Been A Long Long Time -Five Minutes More-Saturday Night Is The Loneliest Nigh Of The Week
TTITLE4=Love And Marriage
TTITLE5=Three Coins In The Fountain
TTITLE6=It's Nice To Go Trav'ling
TTITLE7=Medley:- I'll Be Seeing You-Nancy (With The Laughing Face)-I'm A Fool To Want You
TTITLE8=Come Fly With Me
TTITLE9=Which Craft
TTITLE10=Nice 'N' Easy
TTITLE11=London By Night
TTITLE12=The Tender Trap
TTITLE13=Medley:- Beging The Beguine-I've Got You Under My Skin-Night And Day
TTITLE14=All The Way
TTITLE15=High Hopes
TTITLE16=If You Never Come To Me
TTITLE17=Medley:- Hey Jealous Lover-The Lady Is A Tramp-My Kind Of Town (Chicago Is)
TTITLE18=Young At Heart
TTITLE19=My Way
EXTD=
EXTT0=
EXTT1=
EXTT2=
EXTT3=
EXTT4=
EXTT5=
EXTT6=
EXTT7=
EXTT8=
EXTT9=
EXTT10=
EXTT11=
EXTT12=
EXTT13=
EXTT14=
EXTT15=
EXTT16=
EXTT17=
EXTT18=
EXTT19=
PLAYORDER=
